<?xml version="1.0" encoding="UTF-8"?> <svg xmlns="http://www.w3.org/2000/svg" id="Layer_2" viewBox="0 0 2336.08 482.76"><g id="Layer_1-2"><g><polygon points="940.29 216.28 940.29 367.07 1006.23 367.07 1006.23 317.3 940.29 216.28" fill-rule="evenodd"></polygon><path d="M1384.55,37.39c-21.1,.06-41.59,4.58-60.91,13.42-18.58,8.51-35.25,20.62-49.53,36.01-14.14,15.23-25.23,32.91-32.97,52.54-7.98,20.24-12.03,41.67-12.03,63.69s4.05,43.45,12.03,63.69c7.74,19.63,18.84,37.31,32.97,52.54,14.28,15.39,30.95,27.5,49.53,36.01,19.46,8.91,40.1,13.42,61.36,13.42h.85s17.99-.01,17.99-.01h.85c21.26,.01,41.9-4.5,61.36-13.41,18.58-8.51,35.25-20.62,49.53-36.01,14.14-15.23,25.23-32.91,32.97-52.54,7.98-20.24,12.03-41.67,12.03-63.69s-4.05-43.45-12.03-63.69c-7.74-19.63-18.84-37.31-32.97-52.54-14.28-15.39-30.95-27.5-49.53-36.01-19.32-8.84-39.81-13.36-60.91-13.42h-20.58Zm.05,271.92c-25.07-.11-48.84-10.91-66.97-30.44-9.09-9.79-16.24-21.2-21.25-33.92-5.23-13.27-7.89-27.37-7.89-41.9s2.65-28.62,7.89-41.9c5.02-12.72,12.17-24.13,21.25-33.92,18.22-19.63,42.15-30.44,67.36-30.44h.85s17.99-.01,17.99-.01h.85c25.22,.01,49.14,10.82,67.36,30.46,9.09,9.79,16.24,21.2,21.25,33.92,5.23,13.27,7.89,27.37,7.89,41.9s-2.65,28.62-7.89,41.9c-5.02,12.72-12.17,24.13-21.25,33.92-18.13,19.53-41.9,30.33-66.97,30.44h-20.47Z"></path><polygon points="1907.72 38.31 1896.52 38.31 1758.66 226.91 1620.8 38.31 1609.6 38.31 1609.6 111.62 1758.66 325.54 1770.85 308.05 1770.85 308.05 1863.61 174.93 1863.61 367.07 1929.54 367.07 1929.54 38.31 1907.72 38.31" fill-rule="evenodd"></polygon><polygon points="1835.96 333.07 1836.26 333.07 1836.11 332.86 1835.96 333.07" fill-rule="evenodd"></polygon><path d="M2197.19,115.56c-5.93-15.03-14.43-28.58-25.27-40.25-10.98-11.83-23.81-21.15-38.13-27.71-15.02-6.87-30.96-10.36-47.37-10.37l-110.79-.4-.22,59.4,110.84,.4h.11c15.67,0,30.6,6.78,42.03,19.09,12,12.92,18.6,30.16,18.6,48.52s-6.61,35.6-18.6,48.52c-11.41,12.3-26.32,19.07-41.97,19.09l-44.96-.22v-57.32h-65.93v192.76h65.93v-76.04l44.76,.22h.15c16.44,0,32.39-3.49,47.43-10.37,14.32-6.55,27.14-15.87,38.13-27.71,10.84-11.68,19.34-25.22,25.27-40.25,6.1-15.48,9.2-31.86,9.2-48.68s-3.09-33.2-9.2-48.68Z" fill-rule="evenodd"></path><rect x="2270.15" y="38.24" width="65.93" height="218.72"></rect><rect x="2270.15" y="301.14" width="65.93" height="65.93" fill="#a34dd6"></rect><polygon points="418.67 248.09 277.83 323.46 136.28 239.15 136.28 237.31 412 75.6 276.7 0 0 162.28 0 317 197.53 434.65 278.32 482.76 313.12 462.88 418.67 406.4 418.67 248.09" fill="#a34dd6" fill-rule="evenodd"></polygon><path d="M1112.32,267.36c10.6-5.9,20.22-13.53,28.68-22.75,10.21-11.13,18.21-24.03,23.78-38.35,5.73-14.71,8.64-30.28,8.64-46.26s-2.91-31.55-8.64-46.26c-5.58-14.31-13.58-27.22-23.78-38.35-10.37-11.31-22.5-20.23-36.04-26.51-14.27-6.61-29.41-9.96-45.02-9.96h-119.64V116.88l163.3,250.19h73.81l-65.08-99.71Zm-52.38-169.05c13.86,0,27.1,6.11,37.28,17.22,10.84,11.82,16.8,27.61,16.8,44.47s-5.97,32.65-16.8,44.47c-5.16,5.63-11.11,9.97-17.53,12.89l-73.46-112.55v-6.5h53.71Z" fill-rule="evenodd"></path><polygon points="425.32 234.67 566.15 159.31 707.71 243.62 707.71 245.46 431.99 407.17 567.29 482.76 843.99 320.48 843.99 165.76 646.46 48.11 565.67 0 530.87 19.88 425.32 76.37 425.32 234.67" fill="#a34dd6" fill-rule="evenodd"></polygon></g></g></svg> 